STARTFONT 2.1
COMMENT CDC 6612 console font
COMMENT   
FONT -AK Design-Seymour-Bold-R-Normal-Sans-8-80-100-100-M-80-CDC6000-1
SIZE 8 100 100
FONTBOUNDINGBOX 8 8 -1 -1
STARTPROPERTIES 25
FONTNAME_REGISTRY ""
FOUNDRY "AK Design"
FAMILY_NAME "Seymour"
WEIGHT_NAME "Bold"
SLANT "R"
SETWIDTH_NAME "Normal"
ADD_STYLE_NAME "Sans"
PIXEL_SIZE 8
POINT_SIZE 80
RESOLUTION_X 100
RESOLUTION_Y 100
SPACING "M"
AVERAGE_WIDTH 80
CHARSET_REGISTRY "CDC6000"
CHARSET_ENCODING "1"
COPYRIGHT "Copyright Paul Koning, 2003."
FACE_NAME "Seymour"
X_HEIGHT 7
CAP_HEIGHT 7
WEIGHT 10
RESOLUTION 100
QUAD_WIDTH 8
FONT_ASCENT 7
FONT_DESCENT 1
_XMBDFED_INFO "Edited with xmbdfed 4.5."
ENDPROPERTIES
CHARS 64
STARTCHAR char00
ENCODING 0
SWIDTH 720 0
DWIDTH 8 0
BBX 0 0 0 0
BITMAP
ENDCHAR
STARTCHAR char65
ENCODING 1
SWIDTH 720 0
DWIDTH 8 0
BBX 7 7 0 0
BITMAP
38
6C
C6
C6
FE
C6
C6
ENDCHAR
STARTCHAR char66
ENCODING 2
SWIDTH 720 0
DWIDTH 8 0
BBX 7 7 0 0
BITMAP
FC
C6
C6
FC
C6
C6
FC
ENDCHAR
STARTCHAR char67
ENCODING 3
SWIDTH 720 0
DWIDTH 8 0
BBX 7 7 0 0
BITMAP
3C
6E
C0
C0
C0
6E
3C
ENDCHAR
STARTCHAR char68
ENCODING 4
SWIDTH 720 0
DWIDTH 8 0
BBX 7 7 0 0
BITMAP
F8
CC
C6
C6
C6
CC
F8
ENDCHAR
STARTCHAR char69
ENCODING 5
SWIDTH 720 0
DWIDTH 8 0
BBX 7 7 0 0
BITMAP
FE
C0
C0
F8
C0
C0
FE
ENDCHAR
STARTCHAR char70
ENCODING 6
SWIDTH 720 0
DWIDTH 8 0
BBX 7 7 0 0
BITMAP
FE
C0
C0
F8
C0
C0
C0
ENDCHAR
STARTCHAR char71
ENCODING 7
SWIDTH 720 0
DWIDTH 8 0
BBX 7 7 0 0
BITMAP
3C
66
C0
C0
C6
66
3E
ENDCHAR
STARTCHAR char72
ENCODING 8
SWIDTH 720 0
DWIDTH 8 0
BBX 7 7 0 0
BITMAP
C6
C6
C6
FE
C6
C6
C6
ENDCHAR
STARTCHAR char73
ENCODING 9
SWIDTH 720 0
DWIDTH 8 0
BBX 4 7 1 0
BITMAP
F0
60
60
60
60
60
F0
ENDCHAR
STARTCHAR char74
ENCODING 10
SWIDTH 720 0
DWIDTH 8 0
BBX 6 8 0 -1
BITMAP
3C
18
18
18
18
18
D8
70
ENDCHAR
STARTCHAR char75
ENCODING 11
SWIDTH 720 0
DWIDTH 8 0
BBX 6 7 0 0
BITMAP
CC
D8
F0
E0
F0
D8
CC
ENDCHAR
STARTCHAR char76
ENCODING 12
SWIDTH 720 0
DWIDTH 8 0
BBX 7 7 0 0
BITMAP
C0
C0
C0
C0
C0
C0
FE
ENDCHAR
STARTCHAR char77
ENCODING 13
SWIDTH 720 0
DWIDTH 8 0
BBX 7 7 0 0
BITMAP
C6
EE
FE
FE
D6
C6
C6
ENDCHAR
STARTCHAR char78
ENCODING 14
SWIDTH 720 0
DWIDTH 8 0
BBX 7 7 0 0
BITMAP
C6
E6
F6
DE
CE
C6
C6
ENDCHAR
STARTCHAR char79
ENCODING 15
SWIDTH 720 0
DWIDTH 8 0
BBX 7 7 0 0
BITMAP
38
6C
C6
C6
C6
6C
38
ENDCHAR
STARTCHAR char80
ENCODING 16
SWIDTH 720 0
DWIDTH 8 0
BBX 7 7 0 0
BITMAP
FC
C6
C6
FC
C0
C0
C0
ENDCHAR
STARTCHAR char81
ENCODING 17
SWIDTH 720 0
DWIDTH 8 0
BBX 7 7 0 0
BITMAP
38
6C
C6
C6
CE
6C
3A
ENDCHAR
STARTCHAR char82
ENCODING 18
SWIDTH 720 0
DWIDTH 8 0
BBX 7 7 0 0
BITMAP
FC
C6
C6
FC
F0
D8
CC
ENDCHAR
STARTCHAR char83
ENCODING 19
SWIDTH 720 0
DWIDTH 8 0
BBX 7 7 0 0
BITMAP
7E
C6
C0
7C
06
C6
FC
ENDCHAR
STARTCHAR char84
ENCODING 20
SWIDTH 720 0
DWIDTH 8 0
BBX 6 7 0 0
BITMAP
FC
30
30
30
30
30
30
ENDCHAR
STARTCHAR char85
ENCODING 21
SWIDTH 720 0
DWIDTH 8 0
BBX 7 7 0 0
BITMAP
C6
C6
C6
C6
C6
C6
7C
ENDCHAR
STARTCHAR char86
ENCODING 22
SWIDTH 720 0
DWIDTH 8 0
BBX 7 7 0 0
BITMAP
C6
C6
C6
C6
6C
38
38
ENDCHAR
STARTCHAR char87
ENCODING 23
SWIDTH 720 0
DWIDTH 8 0
BBX 7 7 0 0
BITMAP
C6
C6
D6
FE
FE
EE
C6
ENDCHAR
STARTCHAR char88
ENCODING 24
SWIDTH 720 0
DWIDTH 8 0
BBX 7 7 0 0
BITMAP
C6
C6
6C
38
6C
C6
C6
ENDCHAR
STARTCHAR char89
ENCODING 25
SWIDTH 720 0
DWIDTH 8 0
BBX 6 7 0 0
BITMAP
CC
CC
78
30
30
30
30
ENDCHAR
STARTCHAR char90
ENCODING 26
SWIDTH 720 0
DWIDTH 8 0
BBX 7 7 0 0
BITMAP
FE
0C
18
30
60
C0
FE
ENDCHAR
STARTCHAR char48
ENCODING 27
SWIDTH 720 0
DWIDTH 8 0
BBX 6 7 0 0
BITMAP
78
CC
DC
FC
EC
CC
78
ENDCHAR
STARTCHAR char49
ENCODING 28
SWIDTH 720 0
DWIDTH 8 0
BBX 3 7 1 0
BITMAP
60
E0
60
60
60
60
60
ENDCHAR
STARTCHAR char50
ENCODING 29
SWIDTH 720 0
DWIDTH 8 0
BBX 6 7 0 0
BITMAP
78
CC
0C
38
60
C0
FC
ENDCHAR
STARTCHAR char51
ENCODING 30
SWIDTH 720 0
DWIDTH 8 0
BBX 6 7 0 0
BITMAP
78
CC
0C
38
0C
CC
78
ENDCHAR
STARTCHAR char52
ENCODING 31
SWIDTH 720 0
DWIDTH 8 0
BBX 7 7 0 0
BITMAP
38
78
58
D8
FE
18
18
ENDCHAR
STARTCHAR char53
ENCODING 32
SWIDTH 720 0
DWIDTH 8 0
BBX 7 7 0 0
BITMAP
FC
C0
F8
0C
06
C6
7C
ENDCHAR
STARTCHAR char54
ENCODING 33
SWIDTH 720 0
DWIDTH 8 0
BBX 6 7 0 0
BITMAP
78
CC
C0
F8
CC
CC
78
ENDCHAR
STARTCHAR char55
ENCODING 34
SWIDTH 720 0
DWIDTH 8 0
BBX 6 7 0 0
BITMAP
FC
0C
18
30
30
60
60
ENDCHAR
STARTCHAR char56
ENCODING 35
SWIDTH 720 0
DWIDTH 8 0
BBX 6 7 0 0
BITMAP
78
CC
CC
78
CC
CC
78
ENDCHAR
STARTCHAR char57
ENCODING 36
SWIDTH 720 0
DWIDTH 8 0
BBX 6 7 0 0
BITMAP
78
CC
CC
7C
0C
CC
78
ENDCHAR
STARTCHAR char43
ENCODING 37
SWIDTH 720 0
DWIDTH 8 0
BBX 6 5 0 1
BITMAP
30
30
FC
30
30
ENDCHAR
STARTCHAR char45
ENCODING 38
SWIDTH 720 0
DWIDTH 8 0
BBX 6 2 0 2
BITMAP
FC
FC
ENDCHAR
STARTCHAR char42
ENCODING 39
SWIDTH 720 0
DWIDTH 8 0
BBX 5 5 1 2
BITMAP
20
F8
70
F8
20
ENDCHAR
STARTCHAR char47
ENCODING 40
SWIDTH 720 0
DWIDTH 8 0
BBX 6 7 0 0
BITMAP
0C
18
18
30
60
60
C0
ENDCHAR
STARTCHAR char40
ENCODING 41
SWIDTH 720 0
DWIDTH 8 0
BBX 3 7 1 0
BITMAP
60
C0
C0
C0
C0
C0
60
ENDCHAR
STARTCHAR char41
ENCODING 42
SWIDTH 720 0
DWIDTH 8 0
BBX 3 7 2 0
BITMAP
C0
60
60
60
60
60
C0
ENDCHAR
STARTCHAR char36
ENCODING 43
SWIDTH 720 0
DWIDTH 8 0
BBX 6 7 0 0
BITMAP
7C
B0
B0
78
34
34
F8
ENDCHAR
STARTCHAR char61
ENCODING 44
SWIDTH 720 0
DWIDTH 8 0
BBX 6 5 0 1
BITMAP
FC
FC
00
FC
FC
ENDCHAR
STARTCHAR char32
ENCODING 45
SWIDTH 720 0
DWIDTH 8 0
BBX 0 0 0 0
BITMAP
ENDCHAR
STARTCHAR char44
ENCODING 46
SWIDTH 720 0
DWIDTH 8 0
BBX 3 3 1 -1
BITMAP
60
60
C0
ENDCHAR
STARTCHAR char46
ENCODING 47
SWIDTH 720 0
DWIDTH 8 0
BBX 3 3 1 0
BITMAP
E0
E0
E0
ENDCHAR
STARTCHAR char00
ENCODING 48
SWIDTH 720 0
DWIDTH 8 0
BBX 0 0 0 0
BITMAP
ENDCHAR
STARTCHAR char00
ENCODING 49
SWIDTH 720 0
DWIDTH 8 0
BBX 0 0 0 0
BITMAP
ENDCHAR
STARTCHAR char00
ENCODING 50
SWIDTH 720 0
DWIDTH 8 0
BBX 0 0 0 0
BITMAP
ENDCHAR
STARTCHAR char00
ENCODING 51
SWIDTH 720 0
DWIDTH 8 0
BBX 0 0 0 0
BITMAP
ENDCHAR
STARTCHAR char00
ENCODING 52
SWIDTH 720 0
DWIDTH 8 0
BBX 0 0 0 0
BITMAP
ENDCHAR
STARTCHAR char00
ENCODING 53
SWIDTH 720 0
DWIDTH 8 0
BBX 0 0 0 0
BITMAP
ENDCHAR
STARTCHAR char00
ENCODING 54
SWIDTH 720 0
DWIDTH 8 0
BBX 0 0 0 0
BITMAP
ENDCHAR
STARTCHAR char00
ENCODING 55
SWIDTH 720 0
DWIDTH 8 0
BBX 0 0 0 0
BITMAP
ENDCHAR
STARTCHAR char00
ENCODING 56
SWIDTH 720 0
DWIDTH 8 0
BBX 0 0 0 0
BITMAP
ENDCHAR
STARTCHAR char00
ENCODING 57
SWIDTH 720 0
DWIDTH 8 0
BBX 0 0 0 0
BITMAP
ENDCHAR
STARTCHAR char00
ENCODING 58
SWIDTH 720 0
DWIDTH 8 0
BBX 0 0 0 0
BITMAP
ENDCHAR
STARTCHAR char00
ENCODING 59
SWIDTH 720 0
DWIDTH 8 0
BBX 0 0 0 0
BITMAP
ENDCHAR
STARTCHAR char00
ENCODING 60
SWIDTH 720 0
DWIDTH 8 0
BBX 0 0 0 0
BITMAP
ENDCHAR
STARTCHAR char00
ENCODING 61
SWIDTH 720 0
DWIDTH 8 0
BBX 0 0 0 0
BITMAP
ENDCHAR
STARTCHAR char00
ENCODING 62
SWIDTH 720 0
DWIDTH 8 0
BBX 0 0 0 0
BITMAP
ENDCHAR
STARTCHAR char00
ENCODING 63
SWIDTH 720 0
DWIDTH 8 0
BBX 0 0 0 0
BITMAP
ENDCHAR
ENDFONT
